<mxfile host="app.diagrams.net" agent="Mozilla/5.0 (Windows NT 10.0; Win64; x64) AppleWebKit/537.36 (KHTML, like Gecko) Chrome/127.0.0.0 Safari/537.36" version="24.7.5">
  <diagram name="第 1 页" id="-oXNje81ZLOxLUdFJSir">
    <mxGraphModel dx="2691" dy="2627" grid="1" gridSize="10" guides="0" tooltips="1" connect="1" arrows="1" fold="1" page="1" pageScale="1" pageWidth="827" pageHeight="1169" math="0" shadow="0">
      <root>
        <mxCell id="0" />
        <mxCell id="1" parent="0" />
        <mxCell id="rIM0MVLxEejWB8xpZyLr-70" value="" style="rounded=0;whiteSpace=wrap;html=1;shadow=0;sketch=1;curveFitting=1;jiggle=2;" vertex="1" parent="1">
          <mxGeometry x="-110" y="-10" width="1200" height="930" as="geometry" />
        </mxCell>
        <mxCell id="rIM0MVLxEejWB8xpZyLr-72" value="&lt;span style=&quot;font-size: 18px;&quot;&gt;&lt;b&gt;推荐架构&lt;/b&gt;&lt;/span&gt;" style="text;html=1;align=center;verticalAlign=middle;whiteSpace=wrap;rounded=0;shadow=0;sketch=1;curveFitting=1;jiggle=2;" vertex="1" parent="1">
          <mxGeometry x="-100" y="-10" width="80" height="30" as="geometry" />
        </mxCell>
        <mxCell id="rIM0MVLxEejWB8xpZyLr-111" value="VIP&lt;div&gt;16443&lt;/div&gt;" style="rounded=0;whiteSpace=wrap;html=1;shadow=0;sketch=1;curveFitting=1;jiggle=2;" vertex="1" parent="1">
          <mxGeometry x="100" width="480" height="60" as="geometry" />
        </mxCell>
        <mxCell id="rIM0MVLxEejWB8xpZyLr-119" value="" style="rounded=0;whiteSpace=wrap;html=1;shadow=0;sketch=1;curveFitting=1;jiggle=2;" vertex="1" parent="1">
          <mxGeometry x="-60" y="90" width="1090" height="270" as="geometry" />
        </mxCell>
        <mxCell id="rIM0MVLxEejWB8xpZyLr-112" value="nginx+keepalived" style="rounded=0;whiteSpace=wrap;html=1;shadow=0;sketch=1;curveFitting=1;jiggle=2;" vertex="1" parent="1">
          <mxGeometry x="80" y="160" width="120" height="170" as="geometry" />
        </mxCell>
        <mxCell id="rIM0MVLxEejWB8xpZyLr-113" value="nginx+keepalived" style="rounded=0;whiteSpace=wrap;html=1;shadow=0;sketch=1;curveFitting=1;jiggle=2;" vertex="1" parent="1">
          <mxGeometry x="410" y="160" width="120" height="170" as="geometry" />
        </mxCell>
        <mxCell id="rIM0MVLxEejWB8xpZyLr-114" value="......" style="rounded=0;whiteSpace=wrap;html=1;shadow=0;sketch=1;curveFitting=1;jiggle=2;" vertex="1" parent="1">
          <mxGeometry x="780" y="160" width="120" height="170" as="geometry" />
        </mxCell>
        <mxCell id="rIM0MVLxEejWB8xpZyLr-120" value="&lt;b&gt;负载层&lt;/b&gt;" style="text;html=1;align=center;verticalAlign=middle;whiteSpace=wrap;rounded=0;shadow=0;sketch=1;curveFitting=1;jiggle=2;" vertex="1" parent="1">
          <mxGeometry x="-30" y="190" width="60" height="30" as="geometry" />
        </mxCell>
        <mxCell id="rIM0MVLxEejWB8xpZyLr-121" value="" style="rounded=0;whiteSpace=wrap;html=1;shadow=0;sketch=1;curveFitting=1;jiggle=2;" vertex="1" parent="1">
          <mxGeometry x="-60" y="400" width="1100" height="500" as="geometry" />
        </mxCell>
        <mxCell id="rIM0MVLxEejWB8xpZyLr-122" value="&lt;b&gt;K8s集群&lt;/b&gt;" style="text;html=1;align=center;verticalAlign=middle;whiteSpace=wrap;rounded=0;shadow=0;sketch=1;curveFitting=1;jiggle=2;" vertex="1" parent="1">
          <mxGeometry x="-20" y="450" width="60" height="30" as="geometry" />
        </mxCell>
        <mxCell id="rIM0MVLxEejWB8xpZyLr-123" value="Master1" style="rounded=0;whiteSpace=wrap;html=1;shadow=0;sketch=1;curveFitting=1;jiggle=2;" vertex="1" parent="1">
          <mxGeometry x="80" y="430" width="120" height="170" as="geometry" />
        </mxCell>
        <mxCell id="rIM0MVLxEejWB8xpZyLr-124" value="Master2" style="rounded=0;whiteSpace=wrap;html=1;shadow=0;sketch=1;curveFitting=1;jiggle=2;" vertex="1" parent="1">
          <mxGeometry x="250" y="430" width="120" height="170" as="geometry" />
        </mxCell>
        <mxCell id="rIM0MVLxEejWB8xpZyLr-125" value="Master3" style="rounded=0;whiteSpace=wrap;html=1;shadow=0;sketch=1;curveFitting=1;jiggle=2;" vertex="1" parent="1">
          <mxGeometry x="440" y="430" width="120" height="170" as="geometry" />
        </mxCell>
        <mxCell id="rIM0MVLxEejWB8xpZyLr-126" value="Master4" style="rounded=0;whiteSpace=wrap;html=1;shadow=0;sketch=1;curveFitting=1;jiggle=2;" vertex="1" parent="1">
          <mxGeometry x="630" y="430" width="120" height="170" as="geometry" />
        </mxCell>
        <mxCell id="rIM0MVLxEejWB8xpZyLr-127" value="Master......" style="rounded=0;whiteSpace=wrap;html=1;shadow=0;sketch=1;curveFitting=1;jiggle=2;" vertex="1" parent="1">
          <mxGeometry x="810" y="430" width="120" height="170" as="geometry" />
        </mxCell>
        <mxCell id="rIM0MVLxEejWB8xpZyLr-129" value="Node1" style="rounded=0;whiteSpace=wrap;html=1;shadow=0;sketch=1;curveFitting=1;jiggle=2;" vertex="1" parent="1">
          <mxGeometry x="-20" y="650" width="120" height="170" as="geometry" />
        </mxCell>
        <mxCell id="rIM0MVLxEejWB8xpZyLr-130" value="Node1" style="rounded=0;whiteSpace=wrap;html=1;shadow=0;sketch=1;curveFitting=1;jiggle=2;" vertex="1" parent="1">
          <mxGeometry x="720" y="650" width="120" height="170" as="geometry" />
        </mxCell>
        <mxCell id="rIM0MVLxEejWB8xpZyLr-131" value="Node1" style="rounded=0;whiteSpace=wrap;html=1;shadow=0;sketch=1;curveFitting=1;jiggle=2;" vertex="1" parent="1">
          <mxGeometry x="410" y="650" width="120" height="170" as="geometry" />
        </mxCell>
        <mxCell id="rIM0MVLxEejWB8xpZyLr-132" value="Node1" style="rounded=0;whiteSpace=wrap;html=1;shadow=0;sketch=1;curveFitting=1;jiggle=2;" vertex="1" parent="1">
          <mxGeometry x="570" y="650" width="120" height="170" as="geometry" />
        </mxCell>
        <mxCell id="rIM0MVLxEejWB8xpZyLr-133" value="Node1" style="rounded=0;whiteSpace=wrap;html=1;shadow=0;sketch=1;curveFitting=1;jiggle=2;" vertex="1" parent="1">
          <mxGeometry x="870" y="650" width="120" height="170" as="geometry" />
        </mxCell>
        <mxCell id="rIM0MVLxEejWB8xpZyLr-134" value="Master......" style="rounded=0;whiteSpace=wrap;html=1;shadow=0;sketch=1;curveFitting=1;jiggle=2;" vertex="1" parent="1">
          <mxGeometry x="820" y="440" width="120" height="170" as="geometry" />
        </mxCell>
        <mxCell id="rIM0MVLxEejWB8xpZyLr-135" value="Master......" style="rounded=0;whiteSpace=wrap;html=1;shadow=0;sketch=1;curveFitting=1;jiggle=2;" vertex="1" parent="1">
          <mxGeometry x="830" y="450" width="120" height="170" as="geometry" />
        </mxCell>
        <mxCell id="rIM0MVLxEejWB8xpZyLr-137" value="......" style="rounded=0;whiteSpace=wrap;html=1;shadow=0;sketch=1;curveFitting=1;jiggle=2;" vertex="1" parent="1">
          <mxGeometry x="790" y="170" width="120" height="170" as="geometry" />
        </mxCell>
        <mxCell id="rIM0MVLxEejWB8xpZyLr-138" value="......" style="rounded=0;whiteSpace=wrap;html=1;shadow=0;sketch=1;curveFitting=1;jiggle=2;" vertex="1" parent="1">
          <mxGeometry x="800" y="180" width="120" height="170" as="geometry" />
        </mxCell>
        <mxCell id="rIM0MVLxEejWB8xpZyLr-139" value="Node1" style="rounded=0;whiteSpace=wrap;html=1;shadow=0;sketch=1;curveFitting=1;jiggle=2;" vertex="1" parent="1">
          <mxGeometry x="270" y="650" width="120" height="170" as="geometry" />
        </mxCell>
        <mxCell id="rIM0MVLxEejWB8xpZyLr-140" value="Node1" style="rounded=0;whiteSpace=wrap;html=1;shadow=0;sketch=1;curveFitting=1;jiggle=2;" vertex="1" parent="1">
          <mxGeometry x="130" y="650" width="120" height="170" as="geometry" />
        </mxCell>
        <mxCell id="rIM0MVLxEejWB8xpZyLr-141" value="Node1" style="rounded=0;whiteSpace=wrap;html=1;shadow=0;sketch=1;curveFitting=1;jiggle=2;" vertex="1" parent="1">
          <mxGeometry x="880" y="660" width="120" height="170" as="geometry" />
        </mxCell>
        <mxCell id="rIM0MVLxEejWB8xpZyLr-142" value="Node1" style="rounded=0;whiteSpace=wrap;html=1;shadow=0;sketch=1;curveFitting=1;jiggle=2;" vertex="1" parent="1">
          <mxGeometry x="890" y="670" width="120" height="170" as="geometry" />
        </mxCell>
        <mxCell id="rIM0MVLxEejWB8xpZyLr-144" value="6443" style="rounded=0;whiteSpace=wrap;html=1;shadow=0;sketch=1;curveFitting=1;jiggle=2;" vertex="1" parent="1">
          <mxGeometry x="100" y="410" width="90" height="30" as="geometry" />
        </mxCell>
        <mxCell id="rIM0MVLxEejWB8xpZyLr-145" value="6443" style="rounded=0;whiteSpace=wrap;html=1;shadow=0;sketch=1;curveFitting=1;jiggle=2;" vertex="1" parent="1">
          <mxGeometry x="270" y="420" width="90" height="30" as="geometry" />
        </mxCell>
        <mxCell id="rIM0MVLxEejWB8xpZyLr-146" value="6443" style="rounded=0;whiteSpace=wrap;html=1;shadow=0;sketch=1;curveFitting=1;jiggle=2;" vertex="1" parent="1">
          <mxGeometry x="460" y="420" width="90" height="30" as="geometry" />
        </mxCell>
        <mxCell id="rIM0MVLxEejWB8xpZyLr-148" value="6443" style="rounded=0;whiteSpace=wrap;html=1;shadow=0;sketch=1;curveFitting=1;jiggle=2;" vertex="1" parent="1">
          <mxGeometry x="640" y="420" width="90" height="30" as="geometry" />
        </mxCell>
        <mxCell id="rIM0MVLxEejWB8xpZyLr-151" style="edgeStyle=orthogonalEdgeStyle;rounded=0;orthogonalLoop=1;jettySize=auto;html=1;exitX=0.75;exitY=1;exitDx=0;exitDy=0;entryX=0.222;entryY=0.333;entryDx=0;entryDy=0;entryPerimeter=0;curved=1;dashed=1;shadow=0;sketch=1;curveFitting=1;jiggle=2;" edge="1" parent="1" source="rIM0MVLxEejWB8xpZyLr-112" target="rIM0MVLxEejWB8xpZyLr-146">
          <mxGeometry relative="1" as="geometry" />
        </mxCell>
        <mxCell id="rIM0MVLxEejWB8xpZyLr-152" style="edgeStyle=orthogonalEdgeStyle;rounded=0;orthogonalLoop=1;jettySize=auto;html=1;exitX=0.5;exitY=1;exitDx=0;exitDy=0;entryX=0.5;entryY=0;entryDx=0;entryDy=0;curved=1;dashed=1;shadow=0;sketch=1;curveFitting=1;jiggle=2;" edge="1" parent="1" source="rIM0MVLxEejWB8xpZyLr-112" target="rIM0MVLxEejWB8xpZyLr-148">
          <mxGeometry relative="1" as="geometry" />
        </mxCell>
        <mxCell id="rIM0MVLxEejWB8xpZyLr-150" style="edgeStyle=orthogonalEdgeStyle;rounded=0;orthogonalLoop=1;jettySize=auto;html=1;entryX=0.5;entryY=0;entryDx=0;entryDy=0;curved=1;dashed=1;shadow=0;sketch=1;curveFitting=1;jiggle=2;" edge="1" parent="1" source="rIM0MVLxEejWB8xpZyLr-112" target="rIM0MVLxEejWB8xpZyLr-145">
          <mxGeometry relative="1" as="geometry">
            <Array as="points">
              <mxPoint x="130" y="370" />
              <mxPoint x="315" y="370" />
            </Array>
          </mxGeometry>
        </mxCell>
        <mxCell id="rIM0MVLxEejWB8xpZyLr-149" style="edgeStyle=orthogonalEdgeStyle;rounded=0;orthogonalLoop=1;jettySize=auto;html=1;exitX=0.25;exitY=1;exitDx=0;exitDy=0;entryX=0.25;entryY=0;entryDx=0;entryDy=0;curved=1;dashed=1;shadow=0;sketch=1;curveFitting=1;jiggle=2;" edge="1" parent="1" source="rIM0MVLxEejWB8xpZyLr-112" target="rIM0MVLxEejWB8xpZyLr-144">
          <mxGeometry relative="1" as="geometry" />
        </mxCell>
        <mxCell id="rIM0MVLxEejWB8xpZyLr-153" style="edgeStyle=orthogonalEdgeStyle;rounded=0;orthogonalLoop=1;jettySize=auto;html=1;exitX=0.25;exitY=1;exitDx=0;exitDy=0;dashed=1;curved=1;shadow=0;sketch=1;curveFitting=1;jiggle=2;" edge="1" parent="1" source="rIM0MVLxEejWB8xpZyLr-113" target="rIM0MVLxEejWB8xpZyLr-144">
          <mxGeometry relative="1" as="geometry" />
        </mxCell>
        <mxCell id="rIM0MVLxEejWB8xpZyLr-154" style="edgeStyle=orthogonalEdgeStyle;rounded=0;orthogonalLoop=1;jettySize=auto;html=1;exitX=0.5;exitY=1;exitDx=0;exitDy=0;entryX=0.75;entryY=0;entryDx=0;entryDy=0;dashed=1;curved=1;shadow=0;sketch=1;curveFitting=1;jiggle=2;" edge="1" parent="1" source="rIM0MVLxEejWB8xpZyLr-113" target="rIM0MVLxEejWB8xpZyLr-145">
          <mxGeometry relative="1" as="geometry" />
        </mxCell>
        <mxCell id="rIM0MVLxEejWB8xpZyLr-156" style="edgeStyle=orthogonalEdgeStyle;rounded=0;orthogonalLoop=1;jettySize=auto;html=1;exitX=0.75;exitY=1;exitDx=0;exitDy=0;entryX=0.25;entryY=0;entryDx=0;entryDy=0;dashed=1;curved=1;shadow=0;sketch=1;curveFitting=1;jiggle=2;" edge="1" parent="1" source="rIM0MVLxEejWB8xpZyLr-113" target="rIM0MVLxEejWB8xpZyLr-148">
          <mxGeometry relative="1" as="geometry" />
        </mxCell>
        <mxCell id="rIM0MVLxEejWB8xpZyLr-155" style="edgeStyle=orthogonalEdgeStyle;rounded=0;orthogonalLoop=1;jettySize=auto;html=1;exitX=0.608;exitY=1.006;exitDx=0;exitDy=0;entryX=0.411;entryY=0.1;entryDx=0;entryDy=0;entryPerimeter=0;exitPerimeter=0;dashed=1;curved=1;shadow=0;sketch=1;curveFitting=1;jiggle=2;" edge="1" parent="1" source="rIM0MVLxEejWB8xpZyLr-113" target="rIM0MVLxEejWB8xpZyLr-146">
          <mxGeometry relative="1" as="geometry" />
        </mxCell>
        <mxCell id="rIM0MVLxEejWB8xpZyLr-163" style="edgeStyle=orthogonalEdgeStyle;rounded=0;orthogonalLoop=1;jettySize=auto;html=1;curved=1;shadow=0;sketch=1;curveFitting=1;jiggle=2;" edge="1" parent="1" source="rIM0MVLxEejWB8xpZyLr-157" target="rIM0MVLxEejWB8xpZyLr-112">
          <mxGeometry relative="1" as="geometry" />
        </mxCell>
        <mxCell id="rIM0MVLxEejWB8xpZyLr-164" style="edgeStyle=orthogonalEdgeStyle;rounded=0;orthogonalLoop=1;jettySize=auto;html=1;entryX=0.5;entryY=0;entryDx=0;entryDy=0;curved=1;dashed=1;shadow=0;sketch=1;curveFitting=1;jiggle=2;" edge="1" parent="1" source="rIM0MVLxEejWB8xpZyLr-157" target="rIM0MVLxEejWB8xpZyLr-114">
          <mxGeometry relative="1" as="geometry" />
        </mxCell>
        <mxCell id="rIM0MVLxEejWB8xpZyLr-165" style="edgeStyle=orthogonalEdgeStyle;rounded=0;orthogonalLoop=1;jettySize=auto;html=1;curved=1;dashed=1;shadow=0;sketch=1;curveFitting=1;jiggle=2;" edge="1" parent="1" source="rIM0MVLxEejWB8xpZyLr-157" target="rIM0MVLxEejWB8xpZyLr-113">
          <mxGeometry relative="1" as="geometry" />
        </mxCell>
        <mxCell id="rIM0MVLxEejWB8xpZyLr-157" value="" style="html=1;verticalLabelPosition=bottom;align=center;labelBackgroundColor=#ffffff;verticalAlign=top;strokeWidth=2;strokeColor=#b85450;shadow=0;dashed=0;shape=mxgraph.ios7.icons.heart;fillColor=#f8cecc;sketch=1;curveFitting=1;jiggle=2;" vertex="1" parent="1">
          <mxGeometry x="460" y="100" width="30.599999999999998" height="27.3" as="geometry" />
        </mxCell>
        <mxCell id="rIM0MVLxEejWB8xpZyLr-162" style="edgeStyle=orthogonalEdgeStyle;rounded=0;orthogonalLoop=1;jettySize=auto;html=1;entryX=0.458;entryY=0.147;entryDx=0;entryDy=0;entryPerimeter=0;shadow=0;sketch=1;curveFitting=1;jiggle=2;" edge="1" parent="1" source="rIM0MVLxEejWB8xpZyLr-111" target="rIM0MVLxEejWB8xpZyLr-157">
          <mxGeometry relative="1" as="geometry" />
        </mxCell>
        <mxCell id="rIM0MVLxEejWB8xpZyLr-168" style="edgeStyle=orthogonalEdgeStyle;rounded=0;orthogonalLoop=1;jettySize=auto;html=1;shadow=0;sketch=1;curveFitting=1;jiggle=2;" edge="1" parent="1" source="rIM0MVLxEejWB8xpZyLr-166" target="rIM0MVLxEejWB8xpZyLr-167">
          <mxGeometry relative="1" as="geometry" />
        </mxCell>
        <mxCell id="rIM0MVLxEejWB8xpZyLr-166" value="" style="shape=umlActor;verticalLabelPosition=bottom;verticalAlign=top;html=1;outlineConnect=0;shadow=0;sketch=1;curveFitting=1;jiggle=2;" vertex="1" parent="1">
          <mxGeometry x="880" y="10" width="30" height="60" as="geometry" />
        </mxCell>
        <mxCell id="rIM0MVLxEejWB8xpZyLr-169" style="edgeStyle=orthogonalEdgeStyle;rounded=0;orthogonalLoop=1;jettySize=auto;html=1;entryX=1;entryY=0.5;entryDx=0;entryDy=0;shadow=0;sketch=1;curveFitting=1;jiggle=2;" edge="1" parent="1" source="rIM0MVLxEejWB8xpZyLr-167" target="rIM0MVLxEejWB8xpZyLr-111">
          <mxGeometry relative="1" as="geometry" />
        </mxCell>
        <mxCell id="rIM0MVLxEejWB8xpZyLr-167" value="kubectl" style="rounded=0;whiteSpace=wrap;html=1;shadow=0;sketch=1;curveFitting=1;jiggle=2;" vertex="1" parent="1">
          <mxGeometry x="690" y="30" width="120" height="30" as="geometry" />
        </mxCell>
      </root>
    </mxGraphModel>
  </diagram>
</mxfile>
